<mxfile host="65bd71144e">
    <diagram id="uNV5_9kgWDEe1m726PuI" name="Page-1">
        <mxGraphModel dx="577" dy="291" grid="1" gridSize="10" guides="1" tooltips="1" connect="1" arrows="1" fold="1" page="1" pageScale="1" pageWidth="850" pageHeight="1100" math="0" shadow="0">
            <root>
                <mxCell id="0"/>
                <mxCell id="1" parent="0"/>
                <mxCell id="2" value="Calificacion" style="swimlane;fontStyle=1;align=center;verticalAlign=top;childLayout=stackLayout;horizontal=1;startSize=26;horizontalStack=0;resizeParent=1;resizeParentMax=0;resizeLast=0;collapsible=1;marginBottom=0;" parent="1" vertex="1">
                    <mxGeometry x="110" y="120" width="390" height="350" as="geometry"/>
                </mxCell>
                <mxCell id="3" value="- nombre : String&#10;- materia : string&#10;- cognitivo : double&#10;- sumativo : double&#10;- formativo : double&#10;+ calificacion : double" style="text;strokeColor=none;fillColor=default;align=left;verticalAlign=top;spacingLeft=4;spacingRight=4;overflow=hidden;rotatable=0;points=[[0,0.5],[1,0.5]];portConstraint=eastwest;" parent="2" vertex="1">
                    <mxGeometry y="26" width="390" height="94" as="geometry"/>
                </mxCell>
                <mxCell id="4" value="" style="line;strokeWidth=1;fillColor=none;align=left;verticalAlign=middle;spacingTop=-1;spacingLeft=3;spacingRight=3;rotatable=0;labelPosition=right;points=[];portConstraint=eastwest;" parent="2" vertex="1">
                    <mxGeometry y="120" width="390" height="8" as="geometry"/>
                </mxCell>
                <mxCell id="5" value="Calificacion ()&#10;&#10;+setNombre (nombre : string)&#10;+setMateria (materia : string)&#10;+setCognitivo (cognitivo : double)&#10;+setSumativo (sumativo : double)&#10;+setFormativo (formativo : double)&#10;+setCalificaion (calificacion : double)&#10;+setNombre (nombre : string)&#10;+setMateria (materia : string)&#10;+setCognitivo (cognitivo : double)&#10;+setSumativo (sumativo : double)&#10;+setFormativo (formativo : double)&#10;+setCalificaionÂ " style="text;strokeColor=none;fillColor=default;align=left;verticalAlign=top;spacingLeft=4;spacingRight=4;overflow=hidden;rotatable=0;points=[[0,0.5],[1,0.5]];portConstraint=eastwest;" parent="2" vertex="1">
                    <mxGeometry y="128" width="390" height="222" as="geometry"/>
                </mxCell>
            </root>
        </mxGraphModel>
    </diagram>
</mxfile>